{
	"asset":{
		"generator":"Khronos glTF Blender I/O v4.5.47",
		"version":"2.0"
	},
	"scene":0,
	"scenes":[
		{
			"name":"Scene",
			"nodes":[
				0,
				1,
				2,
				3
			]
		}
	],
	"nodes":[
		{
			"mesh":0,
			"name":"Pyramid"
		},
		{
			"mesh":1,
			"name":"Cone",
			"rotation":[
				-1,
				0,
				0,
				4.371138828673793e-08
			],
			"scale":[
				0.883091151714325,
				0.883091151714325,
				0.883091151714325
			],
			"translation":[
				-0.008140483871102333,
				0.2150707244873047,
				0.0037372373044490814
			]
		},
		{
			"mesh":2,
			"name":"Cube",
			"translation":[
				-0.008140483871102333,
				2.1154682636260986,
				0.0037372373044490814
			]
		},
		{
			"mesh":3,
			"name":"Cylinder",
			"translation":[
				-0.008140483871102333,
				3.9022445678710938,
				0.0037372373044490814
			]
		}
	],
	"materials":[
		{
			"doubleSided":true,
			"name":"Material.004",
			"normalTexture":{
				"index":0
			},
			"pbrMetallicRoughness":{
				"baseColorTexture":{
					"index":1
				},
				"metallicFactor":0,
				"metallicRoughnessTexture":{
					"index":2
				}
			}
		}
	],
	"meshes":[
		{
			"name":"Pyramid",
			"primitives":[
				{
					"attributes":{
						"POSITION":0,
						"NORMAL":1,
						"TEXCOORD_0":2,
						"TANGENT":3
					},
					"indices":4,
					"material":0
				}
			]
		},
		{
			"name":"Cone",
			"primitives":[
				{
					"attributes":{
						"POSITION":5,
						"NORMAL":6,
						"TEXCOORD_0":7
					},
					"indices":8,
					"material":0
				}
			]
		},
		{
			"name":"Cube",
			"primitives":[
				{
					"attributes":{
						"POSITION":9,
						"NORMAL":10,
						"TEXCOORD_0":11,
						"TANGENT":12
					},
					"indices":13,
					"material":0
				}
			]
		},
		{
			"name":"Cylinder",
			"primitives":[
				{
					"attributes":{
						"POSITION":14,
						"NORMAL":15,
						"TEXCOORD_0":16
					},
					"indices":17,
					"material":0
				}
			]
		}
	],
	"textures":[
		{
			"sampler":0,
			"source":0
		},
		{
			"sampler":0,
			"source":1
		},
		{
			"sampler":0,
			"source":2
		}
	],
	"images":[
		{
			"mimeType":"image/jpeg",
			"name":"Metal028_4K-JPG_NormalGL",
			"uri":"Metal028_4K-JPG_NormalGL.jpg"
		},
		{
			"mimeType":"image/jpeg",
			"name":"Metal028_4K-JPG_Color",
			"uri":"Metal028_4K-JPG_Color.jpg"
		},
		{
			"mimeType":"image/png",
			"name":"Metal028_4K-JPG_Roughness",
			"uri":"Metal028_4K-JPG_Roughness.png"
		}
	],
	"accessors":[
		{
			"bufferView":0,
			"componentType":5126,
			"count":24,
			"max":[
				-5.422087669372559,
				8.816200256347656,
				4.158222675323486
			],
			"min":[
				-13.738530158996582,
				0.4997549057006836,
				-4.158222675323486
			],
			"type":"VEC3"
		},
		{
			"bufferView":1,
			"componentType":5126,
			"count":24,
			"type":"VEC3"
		},
		{
			"bufferView":2,
			"componentType":5126,
			"count":24,
			"type":"VEC2"
		},
		{
			"bufferView":3,
			"componentType":5126,
			"count":24,
			"type":"VEC4"
		},
		{
			"bufferView":4,
			"componentType":5123,
			"count":36,
			"type":"SCALAR"
		},
		{
			"bufferView":5,
			"componentType":5126,
			"count":128,
			"max":[
				1,
				1,
				1
			],
			"min":[
				-1,
				-1,
				-1
			],
			"type":"VEC3"
		},
		{
			"bufferView":6,
			"componentType":5126,
			"count":128,
			"type":"VEC3"
		},
		{
			"bufferView":7,
			"componentType":5126,
			"count":128,
			"type":"VEC2"
		},
		{
			"bufferView":8,
			"componentType":5123,
			"count":186,
			"type":"SCALAR"
		},
		{
			"bufferView":9,
			"componentType":5126,
			"count":24,
			"max":[
				1.139682650566101,
				1,
				1.139682650566101
			],
			"min":[
				-1.139682650566101,
				-1,
				-1.139682650566101
			],
			"type":"VEC3"
		},
		{
			"bufferView":10,
			"componentType":5126,
			"count":24,
			"type":"VEC3"
		},
		{
			"bufferView":11,
			"componentType":5126,
			"count":24,
			"type":"VEC2"
		},
		{
			"bufferView":12,
			"componentType":5126,
			"count":24,
			"type":"VEC4"
		},
		{
			"bufferView":13,
			"componentType":5123,
			"count":36,
			"type":"SCALAR"
		},
		{
			"bufferView":14,
			"componentType":5126,
			"count":1536,
			"max":[
				1,
				2.4615371227264404,
				1
			],
			"min":[
				-7.054847240447998,
				-1,
				-1
			],
			"type":"VEC3"
		},
		{
			"bufferView":15,
			"componentType":5126,
			"count":1536,
			"type":"VEC3"
		},
		{
			"bufferView":16,
			"componentType":5126,
			"count":1536,
			"type":"VEC2"
		},
		{
			"bufferView":17,
			"componentType":5123,
			"count":2484,
			"type":"SCALAR"
		}
	],
	"bufferViews":[
		{
			"buffer":0,
			"byteLength":288,
			"byteOffset":0,
			"target":34962
		},
		{
			"buffer":0,
			"byteLength":288,
			"byteOffset":288,
			"target":34962
		},
		{
			"buffer":0,
			"byteLength":192,
			"byteOffset":576,
			"target":34962
		},
		{
			"buffer":0,
			"byteLength":384,
			"byteOffset":768,
			"target":34962
		},
		{
			"buffer":0,
			"byteLength":72,
			"byteOffset":1152,
			"target":34963
		},
		{
			"buffer":0,
			"byteLength":1536,
			"byteOffset":1224,
			"target":34962
		},
		{
			"buffer":0,
			"byteLength":1536,
			"byteOffset":2760,
			"target":34962
		},
		{
			"buffer":0,
			"byteLength":1024,
			"byteOffset":4296,
			"target":34962
		},
		{
			"buffer":0,
			"byteLength":372,
			"byteOffset":5320,
			"target":34963
		},
		{
			"buffer":0,
			"byteLength":288,
			"byteOffset":5692,
			"target":34962
		},
		{
			"buffer":0,
			"byteLength":288,
			"byteOffset":5980,
			"target":34962
		},
		{
			"buffer":0,
			"byteLength":192,
			"byteOffset":6268,
			"target":34962
		},
		{
			"buffer":0,
			"byteLength":384,
			"byteOffset":6460,
			"target":34962
		},
		{
			"buffer":0,
			"byteLength":72,
			"byteOffset":6844,
			"target":34963
		},
		{
			"buffer":0,
			"byteLength":18432,
			"byteOffset":6916,
			"target":34962
		},
		{
			"buffer":0,
			"byteLength":18432,
			"byteOffset":25348,
			"target":34962
		},
		{
			"buffer":0,
			"byteLength":12288,
			"byteOffset":43780,
			"target":34962
		},
		{
			"buffer":0,
			"byteLength":4968,
			"byteOffset":56068,
			"target":34963
		}
	],
	"samplers":[
		{
			"magFilter":9729,
			"minFilter":9987
		}
	],
	"buffers":[
		{
			"byteLength":61036,
			"uri":"Miner.bin"
		}
	]
}
