{
	"asset":{
		"generator":"Khronos glTF Blender I/O v4.5.47",
		"version":"2.0"
	},
	"scene":0,
	"scenes":[
		{
			"name":"Scene",
			"nodes":[
				0
			]
		}
	],
	"nodes":[
		{
			"mesh":0,
			"name":"Cube"
		}
	],
	"materials":[
		{
			"alphaMode":"BLEND",
			"doubleSided":true,
			"name":"Material.002",
			"normalTexture":{
				"index":0
			},
			"pbrMetallicRoughness":{
				"baseColorTexture":{
					"index":1
				},
				"metallicRoughnessTexture":{
					"index":2
				}
			}
		},
		{
			"alphaMode":"BLEND",
			"doubleSided":true,
			"name":"Material.001",
			"normalTexture":{
				"index":3
			},
			"pbrMetallicRoughness":{
				"baseColorTexture":{
					"index":4
				},
				"metallicFactor":0.19545453786849976,
				"metallicRoughnessTexture":{
					"index":5
				}
			}
		},
		{
			"doubleSided":true,
			"name":"Material.004",
			"normalTexture":{
				"index":6
			},
			"pbrMetallicRoughness":{
				"baseColorTexture":{
					"index":7
				},
				"metallicFactor":0,
				"metallicRoughnessTexture":{
					"index":8
				}
			}
		}
	],
	"meshes":[
		{
			"name":"Cube.003",
			"primitives":[
				{
					"attributes":{
						"POSITION":0,
						"NORMAL":1,
						"TEXCOORD_0":2,
						"TANGENT":3
					},
					"indices":4,
					"material":0
				},
				{
					"attributes":{
						"POSITION":5,
						"NORMAL":6,
						"TEXCOORD_0":7,
						"TANGENT":8
					},
					"indices":9,
					"material":1
				},
				{
					"attributes":{
						"POSITION":10,
						"NORMAL":11,
						"TEXCOORD_0":12,
						"TANGENT":13
					},
					"indices":14,
					"material":2
				}
			]
		}
	],
	"textures":[
		{
			"sampler":0,
			"source":0
		},
		{
			"sampler":0,
			"source":1
		},
		{
			"sampler":0,
			"source":2
		},
		{
			"sampler":0,
			"source":3
		},
		{
			"sampler":0,
			"source":4
		},
		{
			"sampler":0,
			"source":5
		},
		{
			"sampler":0,
			"source":6
		},
		{
			"sampler":0,
			"source":7
		},
		{
			"sampler":0,
			"source":8
		}
	],
	"images":[
		{
			"mimeType":"image/png",
			"name":"powder-coated-metal_normal-ogl",
			"uri":"powder-coated-metal_normal-ogl.png"
		},
		{
			"mimeType":"image/png",
			"name":"powder-coated-metal_albedo",
			"uri":"powder-coated-metal_albedo.png"
		},
		{
			"mimeType":"image/png",
			"name":"powder-coated-metal_roughness",
			"uri":"powder-coated-metal_roughness.png"
		},
		{
			"mimeType":"image/png",
			"name":"metal-with-leaks_normal-ogl",
			"uri":"metal-with-leaks_normal-ogl.png"
		},
		{
			"mimeType":"image/png",
			"name":"metal-with-leaks_albedo",
			"uri":"metal-with-leaks_albedo.png"
		},
		{
			"mimeType":"image/png",
			"name":"metal-with-leaks_roughness",
			"uri":"metal-with-leaks_roughness.png"
		},
		{
			"mimeType":"image/jpeg",
			"name":"Metal028_4K-JPG_NormalGL",
			"uri":"Metal028_4K-JPG_NormalGL.jpg"
		},
		{
			"mimeType":"image/jpeg",
			"name":"Metal028_4K-JPG_Color",
			"uri":"Metal028_4K-JPG_Color.jpg"
		},
		{
			"mimeType":"image/png",
			"name":"Metal028_4K-JPG_Roughness",
			"uri":"Metal028_4K-JPG_Roughness.png"
		}
	],
	"accessors":[
		{
			"bufferView":0,
			"componentType":5126,
			"count":42,
			"max":[
				1.3995832204818726,
				7.826344013214111,
				1.3995832204818726
			],
			"min":[
				-1.3995832204818726,
				-1,
				-1.3995832204818726
			],
			"type":"VEC3"
		},
		{
			"bufferView":1,
			"componentType":5126,
			"count":42,
			"type":"VEC3"
		},
		{
			"bufferView":2,
			"componentType":5126,
			"count":42,
			"type":"VEC2"
		},
		{
			"bufferView":3,
			"componentType":5126,
			"count":42,
			"type":"VEC4"
		},
		{
			"bufferView":4,
			"componentType":5123,
			"count":72,
			"type":"SCALAR"
		},
		{
			"bufferView":5,
			"componentType":5126,
			"count":16,
			"max":[
				0.7633098363876343,
				1,
				0.7633098363876343
			],
			"min":[
				-0.7633098363876343,
				-1,
				-0.7633098363876343
			],
			"type":"VEC3"
		},
		{
			"bufferView":6,
			"componentType":5126,
			"count":16,
			"type":"VEC3"
		},
		{
			"bufferView":7,
			"componentType":5126,
			"count":16,
			"type":"VEC2"
		},
		{
			"bufferView":8,
			"componentType":5126,
			"count":16,
			"type":"VEC4"
		},
		{
			"bufferView":9,
			"componentType":5123,
			"count":24,
			"type":"SCALAR"
		},
		{
			"bufferView":10,
			"componentType":5126,
			"count":68,
			"max":[
				1,
				8.816200256347656,
				4.158222675323486
			],
			"min":[
				-13.738530158996582,
				0.4997549057006836,
				-4.158222675323486
			],
			"type":"VEC3"
		},
		{
			"bufferView":11,
			"componentType":5126,
			"count":68,
			"type":"VEC3"
		},
		{
			"bufferView":12,
			"componentType":5126,
			"count":68,
			"type":"VEC2"
		},
		{
			"bufferView":13,
			"componentType":5126,
			"count":68,
			"type":"VEC4"
		},
		{
			"bufferView":14,
			"componentType":5123,
			"count":108,
			"type":"SCALAR"
		}
	],
	"bufferViews":[
		{
			"buffer":0,
			"byteLength":504,
			"byteOffset":0,
			"target":34962
		},
		{
			"buffer":0,
			"byteLength":504,
			"byteOffset":504,
			"target":34962
		},
		{
			"buffer":0,
			"byteLength":336,
			"byteOffset":1008,
			"target":34962
		},
		{
			"buffer":0,
			"byteLength":672,
			"byteOffset":1344,
			"target":34962
		},
		{
			"buffer":0,
			"byteLength":144,
			"byteOffset":2016,
			"target":34963
		},
		{
			"buffer":0,
			"byteLength":192,
			"byteOffset":2160,
			"target":34962
		},
		{
			"buffer":0,
			"byteLength":192,
			"byteOffset":2352,
			"target":34962
		},
		{
			"buffer":0,
			"byteLength":128,
			"byteOffset":2544,
			"target":34962
		},
		{
			"buffer":0,
			"byteLength":256,
			"byteOffset":2672,
			"target":34962
		},
		{
			"buffer":0,
			"byteLength":48,
			"byteOffset":2928,
			"target":34963
		},
		{
			"buffer":0,
			"byteLength":816,
			"byteOffset":2976,
			"target":34962
		},
		{
			"buffer":0,
			"byteLength":816,
			"byteOffset":3792,
			"target":34962
		},
		{
			"buffer":0,
			"byteLength":544,
			"byteOffset":4608,
			"target":34962
		},
		{
			"buffer":0,
			"byteLength":1088,
			"byteOffset":5152,
			"target":34962
		},
		{
			"buffer":0,
			"byteLength":216,
			"byteOffset":6240,
			"target":34963
		}
	],
	"samplers":[
		{
			"magFilter":9729,
			"minFilter":9987
		}
	],
	"buffers":[
		{
			"byteLength":6456,
			"uri":"Test.bin"
		}
	]
}
