{
	"asset":{
		"generator":"Khronos glTF Blender I/O v4.5.47",
		"version":"2.0"
	},
	"scene":0,
	"scenes":[
		{
			"name":"Scene",
			"nodes":[
				0,
				1
			]
		}
	],
	"nodes":[
		{
			"mesh":0,
			"name":"Asteroid_1b"
		},
		{
			"name":"light_rig",
			"rotation":[
				0.9044776558876038,
				0.06145128607749939,
				0.26992082595825195,
				0.3244791626930237
			],
			"scale":[
				2.1246626377105713,
				2.124662399291992,
				2.1246626377105713
			],
			"translation":[
				0.1295689344406128,
				0.02415013313293457,
				0.0038847513496875763
			]
		}
	],
	"materials":[
		{
			"doubleSided":true,
			"name":"Asteroid1b",
			"normalTexture":{
				"index":0
			},
			"pbrMetallicRoughness":{
				"baseColorTexture":{
					"index":1
				},
				"metallicRoughnessTexture":{
					"index":2
				}
			}
		}
	],
	"meshes":[
		{
			"name":"Asteroid_1b",
			"primitives":[
				{
					"attributes":{
						"POSITION":0,
						"NORMAL":1,
						"TEXCOORD_0":2
					},
					"indices":3,
					"material":0
				}
			]
		}
	],
	"textures":[
		{
			"sampler":0,
			"source":0
		},
		{
			"sampler":0,
			"source":1
		},
		{
			"sampler":0,
			"source":2
		}
	],
	"images":[
		{
			"mimeType":"image/png",
			"name":"Asteroid1b _NormalOpenGL_2K",
			"uri":"Asteroid1b%20_NormalOpenGL_2K.png"
		},
		{
			"mimeType":"image/png",
			"name":"Asteroid1b _Color_2K",
			"uri":"Asteroid1b%20_Color_2K.png"
		},
		{
			"mimeType":"image/png",
			"name":"Asteroid1b _Metallic_2K-Asteroid1b _Roughness_2K",
			"uri":"Asteroid1b%20_Metallic_2K-Asteroid1b%20_Roughness_2K.png"
		}
	],
	"accessors":[
		{
			"bufferView":0,
			"componentType":5126,
			"count":29952,
			"max":[
				1.8712141513824463,
				1.2308342456817627,
				1.2783652544021606
			],
			"min":[
				-1.84412682056427,
				-1.2363334894180298,
				-1.2634252309799194
			],
			"type":"VEC3"
		},
		{
			"bufferView":1,
			"componentType":5126,
			"count":29952,
			"type":"VEC3"
		},
		{
			"bufferView":2,
			"componentType":5126,
			"count":29952,
			"type":"VEC2"
		},
		{
			"bufferView":3,
			"componentType":5123,
			"count":170724,
			"type":"SCALAR"
		}
	],
	"bufferViews":[
		{
			"buffer":0,
			"byteLength":359424,
			"byteOffset":0,
			"target":34962
		},
		{
			"buffer":0,
			"byteLength":359424,
			"byteOffset":359424,
			"target":34962
		},
		{
			"buffer":0,
			"byteLength":239616,
			"byteOffset":718848,
			"target":34962
		},
		{
			"buffer":0,
			"byteLength":341448,
			"byteOffset":958464,
			"target":34963
		}
	],
	"samplers":[
		{
			"magFilter":9729,
			"minFilter":9987
		}
	],
	"buffers":[
		{
			"byteLength":1299912,
			"uri":"Asteroid_1b.bin"
		}
	]
}
