{
	"asset":{
		"generator":"Khronos glTF Blender I/O v4.5.47",
		"version":"2.0"
	},
	"extensionsUsed":[
		"KHR_materials_unlit"
	],
	"scene":0,
	"scenes":[
		{
			"name":"Scene",
			"nodes":[
				2
			]
		}
	],
	"nodes":[
		{
			"mesh":0,
			"name":"Object_2"
		},
		{
			"children":[
				0
			],
			"name":"model.obj.cleaner.materialmerger.gles"
		},
		{
			"children":[
				1
			],
			"name":"Sketchfab_model",
			"rotation":[
				-0.7071069478988647,
				0,
				0,
				0.7071066498756409
			],
			"scale":[
				0.013333333656191826,
				0.013333335518836975,
				0.013333335518836975
			]
		}
	],
	"materials":[
		{
			"doubleSided":true,
			"extensions":{
				"KHR_materials_unlit":{}
			},
			"name":"model_Material_u1_v1",
			"pbrMetallicRoughness":{
				"baseColorTexture":{
					"index":0
				},
				"metallicFactor":0,
				"roughnessFactor":0.9
			}
		}
	],
	"meshes":[
		{
			"name":"Object_0",
			"primitives":[
				{
					"attributes":{
						"POSITION":0,
						"NORMAL":1,
						"TEXCOORD_0":2,
						"TANGENT":3
					},
					"indices":4,
					"material":0
				}
			]
		}
	],
	"textures":[
		{
			"sampler":0,
			"source":0
		}
	],
	"images":[
		{
			"mimeType":"image/jpeg",
			"name":"model_Material_u1_v1_baseColor",
			"uri":"model_Material_u1_v1_baseColor.jpg"
		}
	],
	"accessors":[
		{
			"bufferView":0,
			"componentType":5126,
			"count":171727,
			"max":[
				16.503759384155273,
				11.952954292297363,
				22.81155014038086
			],
			"min":[
				-14.204024314880371,
				-7.1663899421691895,
				-0.25850677490234375
			],
			"type":"VEC3"
		},
		{
			"bufferView":1,
			"componentType":5126,
			"count":171727,
			"type":"VEC3"
		},
		{
			"bufferView":2,
			"componentType":5126,
			"count":171727,
			"type":"VEC2"
		},
		{
			"bufferView":3,
			"componentType":5126,
			"count":171727,
			"type":"VEC4"
		},
		{
			"bufferView":4,
			"componentType":5125,
			"count":600000,
			"type":"SCALAR"
		}
	],
	"bufferViews":[
		{
			"buffer":0,
			"byteLength":2060724,
			"byteOffset":0,
			"target":34962
		},
		{
			"buffer":0,
			"byteLength":2060724,
			"byteOffset":2060724,
			"target":34962
		},
		{
			"buffer":0,
			"byteLength":1373816,
			"byteOffset":4121448,
			"target":34962
		},
		{
			"buffer":0,
			"byteLength":2747632,
			"byteOffset":5495264,
			"target":34962
		},
		{
			"buffer":0,
			"byteLength":2400000,
			"byteOffset":8242896,
			"target":34963
		}
	],
	"samplers":[
		{
			"magFilter":9729,
			"minFilter":9987
		}
	],
	"buffers":[
		{
			"byteLength":10642896,
			"uri":"scene.bin"
		}
	]
}
