{
	"asset":{
		"generator":"Khronos glTF Blender I/O v4.5.47",
		"version":"2.0"
	},
	"extensionsUsed":[
		"KHR_materials_emissive_strength"
	],
	"scene":0,
	"scenes":[
		{
			"name":"Scene",
			"nodes":[
				6
			]
		}
	],
	"nodes":[
		{
			"mesh":0,
			"name":"LP_coal_Coal_0"
		},
		{
			"children":[
				0
			],
			"name":"LP_coal",
			"rotation":[
				-0.70710688829422,
				0,
				0,
				0.7071066498756409
			],
			"scale":[
				100,
				99.99999237060547,
				99.99999237060547
			],
			"translation":[
				-57.70058059692383,
				101.89005279541016,
				0.010034441016614437
			]
		},
		{
			"mesh":1,
			"name":"LP_rail_Metal_0"
		},
		{
			"children":[
				2
			],
			"name":"LP_rail",
			"rotation":[
				-0.6869457960128784,
				0.1676468849182129,
				-0.16764689981937408,
				0.6869457960128784
			],
			"scale":[
				99.99998474121094,
				99.99999237060547,
				99.9999771118164
			],
			"translation":[
				135.92210388183594,
				64.33525848388672,
				0.8224892616271973
			]
		},
		{
			"children":[
				1,
				3
			],
			"name":"RootNode"
		},
		{
			"children":[
				4
			],
			"name":"Furnace_Export.fbx",
			"rotation":[
				0.70710688829422,
				0,
				0,
				0.7071066498756409
			],
			"scale":[
				0.009999999776482582,
				0.010000000707805157,
				0.010000000707805157
			]
		},
		{
			"children":[
				5
			],
			"name":"Sketchfab_model",
			"rotation":[
				-0.70710688829422,
				0,
				0,
				0.7071066498756409
			]
		}
	],
	"materials":[
		{
			"doubleSided":true,
			"emissiveFactor":[
				1,
				1,
				1
			],
			"emissiveTexture":{
				"index":0
			},
			"extensions":{
				"KHR_materials_emissive_strength":{
					"emissiveStrength":10
				}
			},
			"name":"Coal",
			"normalTexture":{
				"index":1
			},
			"pbrMetallicRoughness":{
				"baseColorTexture":{
					"index":2
				},
				"metallicRoughnessTexture":{
					"index":3
				}
			}
		},
		{
			"doubleSided":true,
			"name":"Metal",
			"normalTexture":{
				"index":4
			},
			"pbrMetallicRoughness":{
				"baseColorTexture":{
					"index":5
				},
				"metallicFactor":0,
				"metallicRoughnessTexture":{
					"index":6
				}
			}
		},
		{
			"doubleSided":true,
			"name":"Furnace",
			"normalTexture":{
				"index":7
			},
			"pbrMetallicRoughness":{
				"baseColorTexture":{
					"index":8
				},
				"metallicRoughnessTexture":{
					"index":9
				}
			}
		}
	],
	"meshes":[
		{
			"name":"LP_coal_Coal_0",
			"primitives":[
				{
					"attributes":{
						"POSITION":0,
						"NORMAL":1,
						"TEXCOORD_0":2,
						"TEXCOORD_1":3,
						"TEXCOORD_2":4,
						"TEXCOORD_3":5,
						"TANGENT":6
					},
					"indices":7,
					"material":0
				}
			]
		},
		{
			"name":"LP_rail_Metal_0",
			"primitives":[
				{
					"attributes":{
						"POSITION":8,
						"NORMAL":9,
						"TEXCOORD_0":10,
						"TEXCOORD_1":11,
						"TEXCOORD_2":12,
						"TEXCOORD_3":13,
						"TEXCOORD_4":14,
						"TEXCOORD_5":15,
						"TANGENT":16
					},
					"indices":17,
					"material":1
				},
				{
					"attributes":{
						"POSITION":18,
						"NORMAL":19,
						"TEXCOORD_0":20,
						"TEXCOORD_1":21,
						"TEXCOORD_2":22,
						"TEXCOORD_3":23,
						"TEXCOORD_4":24,
						"TEXCOORD_5":25,
						"TANGENT":26
					},
					"indices":27,
					"material":2
				}
			]
		}
	],
	"textures":[
		{
			"sampler":0,
			"source":0
		},
		{
			"sampler":0,
			"source":1
		},
		{
			"sampler":0,
			"source":2
		},
		{
			"sampler":0,
			"source":3
		},
		{
			"sampler":0,
			"source":4
		},
		{
			"sampler":0,
			"source":5
		},
		{
			"sampler":0,
			"source":6
		},
		{
			"sampler":0,
			"source":7
		},
		{
			"sampler":0,
			"source":8
		},
		{
			"sampler":0,
			"source":9
		}
	],
	"images":[
		{
			"mimeType":"image/png",
			"name":"Coal_emissive",
			"uri":"Coal_emissive.png"
		},
		{
			"mimeType":"image/png",
			"name":"Coal_normal",
			"uri":"Coal_normal.png"
		},
		{
			"mimeType":"image/png",
			"name":"Coal_baseColor",
			"uri":"Coal_baseColor.png"
		},
		{
			"mimeType":"image/png",
			"name":"Coal_metallicRoughness",
			"uri":"Coal_metallicRoughness.png"
		},
		{
			"mimeType":"image/png",
			"name":"Metal_normal",
			"uri":"Metal_normal.png"
		},
		{
			"mimeType":"image/png",
			"name":"Metal_baseColor",
			"uri":"Metal_baseColor.png"
		},
		{
			"mimeType":"image/png",
			"name":"Metal_metallicRoughness",
			"uri":"Metal_metallicRoughness.png"
		},
		{
			"mimeType":"image/png",
			"name":"Furnace_normal",
			"uri":"Furnace_normal.png"
		},
		{
			"mimeType":"image/png",
			"name":"Furnace_baseColor",
			"uri":"Furnace_baseColor.png"
		},
		{
			"mimeType":"image/png",
			"name":"Furnace_metallicRoughness",
			"uri":"Furnace_metallicRoughness.png"
		}
	],
	"accessors":[
		{
			"bufferView":0,
			"componentType":5126,
			"count":143,
			"max":[
				1.7913641929626465,
				1.1858606338500977,
				-0.19792544841766357
			],
			"min":[
				-0.27524057030677795,
				-1.1909765005111694,
				-0.6103872060775757
			],
			"type":"VEC3"
		},
		{
			"bufferView":1,
			"componentType":5126,
			"count":143,
			"type":"VEC3"
		},
		{
			"bufferView":2,
			"componentType":5126,
			"count":143,
			"type":"VEC2"
		},
		{
			"bufferView":3,
			"componentType":5126,
			"count":143,
			"type":"VEC2"
		},
		{
			"bufferView":4,
			"componentType":5126,
			"count":143,
			"type":"VEC2"
		},
		{
			"bufferView":5,
			"componentType":5126,
			"count":143,
			"type":"VEC2"
		},
		{
			"bufferView":6,
			"componentType":5126,
			"count":143,
			"type":"VEC4"
		},
		{
			"bufferView":7,
			"componentType":5123,
			"count":720,
			"type":"SCALAR"
		},
		{
			"bufferView":8,
			"componentType":5126,
			"count":2163,
			"max":[
				0.20962494611740112,
				1.3799872398376465,
				0.08394181728363037
			],
			"min":[
				-1.967632532119751,
				-0.756210207939148,
				-0.8345320224761963
			],
			"type":"VEC3"
		},
		{
			"bufferView":9,
			"componentType":5126,
			"count":2163,
			"type":"VEC3"
		},
		{
			"bufferView":10,
			"componentType":5126,
			"count":2163,
			"type":"VEC2"
		},
		{
			"bufferView":11,
			"componentType":5126,
			"count":2163,
			"type":"VEC2"
		},
		{
			"bufferView":12,
			"componentType":5126,
			"count":2163,
			"type":"VEC2"
		},
		{
			"bufferView":13,
			"componentType":5126,
			"count":2163,
			"type":"VEC2"
		},
		{
			"bufferView":14,
			"componentType":5126,
			"count":2163,
			"type":"VEC2"
		},
		{
			"bufferView":15,
			"componentType":5126,
			"count":2163,
			"type":"VEC2"
		},
		{
			"bufferView":16,
			"componentType":5126,
			"count":2163,
			"type":"VEC4"
		},
		{
			"bufferView":17,
			"componentType":5123,
			"count":8382,
			"type":"SCALAR"
		},
		{
			"bufferView":18,
			"componentType":5126,
			"count":2681,
			"max":[
				2.0407464504241943,
				1.4384448528289795,
				0.894835352897644
			],
			"min":[
				-2.8141181468963623,
				-1.4323768615722656,
				-1.9119699001312256
			],
			"type":"VEC3"
		},
		{
			"bufferView":19,
			"componentType":5126,
			"count":2681,
			"type":"VEC3"
		},
		{
			"bufferView":20,
			"componentType":5126,
			"count":2681,
			"type":"VEC2"
		},
		{
			"bufferView":21,
			"componentType":5126,
			"count":2681,
			"type":"VEC2"
		},
		{
			"bufferView":22,
			"componentType":5126,
			"count":2681,
			"type":"VEC2"
		},
		{
			"bufferView":23,
			"componentType":5126,
			"count":2681,
			"type":"VEC2"
		},
		{
			"bufferView":24,
			"componentType":5126,
			"count":2681,
			"type":"VEC2"
		},
		{
			"bufferView":25,
			"componentType":5126,
			"count":2681,
			"type":"VEC2"
		},
		{
			"bufferView":26,
			"componentType":5126,
			"count":2681,
			"type":"VEC4"
		},
		{
			"bufferView":27,
			"componentType":5123,
			"count":11835,
			"type":"SCALAR"
		}
	],
	"bufferViews":[
		{
			"buffer":0,
			"byteLength":1716,
			"byteOffset":0,
			"target":34962
		},
		{
			"buffer":0,
			"byteLength":1716,
			"byteOffset":1716,
			"target":34962
		},
		{
			"buffer":0,
			"byteLength":1144,
			"byteOffset":3432,
			"target":34962
		},
		{
			"buffer":0,
			"byteLength":1144,
			"byteOffset":4576,
			"target":34962
		},
		{
			"buffer":0,
			"byteLength":1144,
			"byteOffset":5720,
			"target":34962
		},
		{
			"buffer":0,
			"byteLength":1144,
			"byteOffset":6864,
			"target":34962
		},
		{
			"buffer":0,
			"byteLength":2288,
			"byteOffset":8008,
			"target":34962
		},
		{
			"buffer":0,
			"byteLength":1440,
			"byteOffset":10296,
			"target":34963
		},
		{
			"buffer":0,
			"byteLength":25956,
			"byteOffset":11736,
			"target":34962
		},
		{
			"buffer":0,
			"byteLength":25956,
			"byteOffset":37692,
			"target":34962
		},
		{
			"buffer":0,
			"byteLength":17304,
			"byteOffset":63648,
			"target":34962
		},
		{
			"buffer":0,
			"byteLength":17304,
			"byteOffset":80952,
			"target":34962
		},
		{
			"buffer":0,
			"byteLength":17304,
			"byteOffset":98256,
			"target":34962
		},
		{
			"buffer":0,
			"byteLength":17304,
			"byteOffset":115560,
			"target":34962
		},
		{
			"buffer":0,
			"byteLength":17304,
			"byteOffset":132864,
			"target":34962
		},
		{
			"buffer":0,
			"byteLength":17304,
			"byteOffset":150168,
			"target":34962
		},
		{
			"buffer":0,
			"byteLength":34608,
			"byteOffset":167472,
			"target":34962
		},
		{
			"buffer":0,
			"byteLength":16764,
			"byteOffset":202080,
			"target":34963
		},
		{
			"buffer":0,
			"byteLength":32172,
			"byteOffset":218844,
			"target":34962
		},
		{
			"buffer":0,
			"byteLength":32172,
			"byteOffset":251016,
			"target":34962
		},
		{
			"buffer":0,
			"byteLength":21448,
			"byteOffset":283188,
			"target":34962
		},
		{
			"buffer":0,
			"byteLength":21448,
			"byteOffset":304636,
			"target":34962
		},
		{
			"buffer":0,
			"byteLength":21448,
			"byteOffset":326084,
			"target":34962
		},
		{
			"buffer":0,
			"byteLength":21448,
			"byteOffset":347532,
			"target":34962
		},
		{
			"buffer":0,
			"byteLength":21448,
			"byteOffset":368980,
			"target":34962
		},
		{
			"buffer":0,
			"byteLength":21448,
			"byteOffset":390428,
			"target":34962
		},
		{
			"buffer":0,
			"byteLength":42896,
			"byteOffset":411876,
			"target":34962
		},
		{
			"buffer":0,
			"byteLength":23670,
			"byteOffset":454772,
			"target":34963
		}
	],
	"samplers":[
		{
			"magFilter":9729,
			"minFilter":9987
		}
	],
	"buffers":[
		{
			"byteLength":478444,
			"uri":"furnace.bin"
		}
	]
}
