{
	"asset":{
		"generator":"Khronos glTF Blender I/O v3.6.28",
		"version":"2.0"
	},
	"scene":0,
	"scenes":[
		{
			"name":"Scene",
			"nodes":[
				0
			]
		}
	],
	"nodes":[
		{
			"mesh":0,
			"name":"Body",
			"translation":[
				0,
				2.161129951477051,
				0
			]
		}
	],
	"materials":[
		{
			"doubleSided":true,
			"name":"Toy Ship",
			"normalTexture":{
				"index":0
			},
			"pbrMetallicRoughness":{
				"baseColorTexture":{
					"index":1
				},
				"metallicRoughnessTexture":{
					"index":2
				}
			}
		}
	],
	"meshes":[
		{
			"name":"Cylinder.002",
			"primitives":[
				{
					"attributes":{
						"POSITION":0,
						"NORMAL":1,
						"TEXCOORD_0":2
					},
					"indices":3,
					"material":0
				}
			]
		}
	],
	"textures":[
		{
			"sampler":0,
			"source":0
		},
		{
			"sampler":0,
			"source":1
		},
		{
			"sampler":0,
			"source":2
		}
	],
	"images":[
		{
			"mimeType":"image/png",
			"name":"Toy Rocket_Toy Ship_Normal",
			"uri":"Toy%20Rocket_Toy%20Ship_Normal.png"
		},
		{
			"mimeType":"image/png",
			"name":"Toy Rocket_Toy Ship_BaseColor",
			"uri":"Toy%20Rocket_Toy%20Ship_BaseColor.png"
		},
		{
			"mimeType":"image/png",
			"name":"Toy Rocket_Toy Ship_Metallic.png-Toy Rocket_Toy Ship_Roughness.png",
			"uri":"Toy%20Rocket_Toy%20Ship_Metallic_png-Toy%20Rocket_Toy%20Ship_Roughness_png.png"
		}
	],
	"accessors":[
		{
			"bufferView":0,
			"componentType":5126,
			"count":5777,
			"max":[
				0.8128543496131897,
				0.9470791220664978,
				0.8128544092178345
			],
			"min":[
				-0.8128544688224792,
				-2.1761670112609863,
				-0.8128544092178345
			],
			"type":"VEC3"
		},
		{
			"bufferView":1,
			"componentType":5126,
			"count":5777,
			"type":"VEC3"
		},
		{
			"bufferView":2,
			"componentType":5126,
			"count":5777,
			"type":"VEC2"
		},
		{
			"bufferView":3,
			"componentType":5123,
			"count":27426,
			"type":"SCALAR"
		}
	],
	"bufferViews":[
		{
			"buffer":0,
			"byteLength":69324,
			"byteOffset":0,
			"target":34962
		},
		{
			"buffer":0,
			"byteLength":69324,
			"byteOffset":69324,
			"target":34962
		},
		{
			"buffer":0,
			"byteLength":46216,
			"byteOffset":138648,
			"target":34962
		},
		{
			"buffer":0,
			"byteLength":54852,
			"byteOffset":184864,
			"target":34963
		}
	],
	"samplers":[
		{
			"magFilter":9729,
			"minFilter":9987
		}
	],
	"buffers":[
		{
			"byteLength":239716,
			"uri":"Toy_Rocket.bin"
		}
	]
}
